<svg preserveAspectRatio="none" width="100%" height="100%" overflow="visible" style="display: block;" viewBox="0 0 24 24" fill="none" xmlns="http://www.w3.org/2000/svg">
<g id="Icon">
<path id="Vector" fill-rule="evenodd" clip-rule="evenodd" d="M21 17.2V3C21 2.44772 20.5523 2 20 2H7C4.79086 2 3 3.79086 3 6V19C3 20.6569 4.34315 22 6 22H21V20.8H20.2V17.2H21ZM7 3.2H19.8V16H6C5.32464 16 4.7014 16.2232 4.2 16.5998V6C4.2 4.4536 5.4536 3.2 7 3.2ZM19 17.2H6C5.00589 17.2 4.2 18.0059 4.2 19C4.2 19.9941 5.00589 20.8 6 20.8H19V17.2Z" fill="var(--fill-0, #0D0D0D)"/>
</g>
</svg>
