<svg width="28" height="28" viewBox="0 0 28 28" fill="none" xmlns="http://www.w3.org/2000/svg">
<path fill-rule="evenodd" clip-rule="evenodd" d="M11.5225 5.2244C10.7211 7.4282 10.2083 10.5307 10.2083 13.9999C10.2083 14.4428 10.2167 14.8796 10.2329 15.3094C11.429 15.4062 12.6924 15.4583 14 15.4583C15.3076 15.4583 16.5711 15.4062 17.767 15.3094C17.7834 14.8796 17.7916 14.4428 17.7916 13.9999C17.7916 10.5307 17.2789 7.4282 16.4775 5.2244C16.0755 4.11892 15.6176 3.28586 15.153 2.74553C15.0145 2.58448 14.8826 2.45706 14.7578 2.35747C14.5074 2.34141 14.2547 2.33325 14 2.33325C13.7454 2.33325 13.4927 2.34141 13.2421 2.35747C13.1174 2.45706 12.9854 2.58448 12.847 2.74553C12.3825 3.28586 11.9245 4.11892 11.5225 5.2244ZM17.6534 17.0736C16.4839 17.1616 15.2596 17.2083 14 17.2083C12.7403 17.2083 11.5161 17.1616 10.3466 17.0736C10.5501 19.288 10.9669 21.2476 11.5225 22.7755C11.9245 23.8809 12.3825 24.714 12.847 25.2543C12.9854 25.4154 13.1174 25.5428 13.2421 25.6423C13.4927 25.6584 13.7454 25.6666 14 25.6666C14.2547 25.6666 14.5074 25.6584 14.7578 25.6423C14.8826 25.5428 15.0145 25.4154 15.153 25.2543C15.6176 24.714 16.0755 23.8809 16.4775 22.7755C17.0331 21.2476 17.4499 19.288 17.6534 17.0736ZM8.47573 15.1293C8.46419 14.7566 8.45832 14.3799 8.45832 13.9999C8.45832 10.3815 8.99022 7.06732 9.87784 4.62636C10.119 3.96331 10.3913 3.35089 10.6947 2.80809C5.97617 4.19943 2.50199 8.49356 2.33929 13.6233C3.36239 14.0878 4.77423 14.5051 6.49479 14.8243C7.12131 14.9405 7.78345 15.0427 8.47573 15.1293ZM2.43587 15.5536C3.50523 15.9525 4.77484 16.2851 6.1756 16.5449C6.93272 16.6854 7.73542 16.8059 8.57533 16.9041C8.77774 19.375 9.23431 21.6038 9.87784 23.3735C10.119 24.0365 10.3913 24.6489 10.6947 25.1918C6.34196 23.9083 3.04813 20.1547 2.43587 15.5536ZM19.4246 16.9041C20.2646 16.8059 21.0673 16.6854 21.8243 16.5449C23.2252 16.2851 24.4947 15.9525 25.5641 15.5536C24.9518 20.1547 21.658 23.9083 17.3054 25.1918C17.6087 24.6489 17.881 24.0365 18.1222 23.3735C18.7657 21.6038 19.2222 19.375 19.4246 16.9041ZM25.6607 13.6233C24.6376 14.0878 23.2257 14.5051 21.5053 14.8243C20.8786 14.9405 20.2166 15.0427 19.5243 15.1293C19.5358 14.7566 19.5416 14.3799 19.5416 13.9999C19.5416 10.3815 19.0098 7.06732 18.1222 4.62636C17.881 3.96331 17.6087 3.35089 17.3054 2.80809C22.0238 4.19943 25.4981 8.49356 25.6607 13.6233Z" fill="#3EBB6C"/>
</svg>
