<svg width="194" height="158" viewBox="0 0 194 158" fill="none" xmlns="http://www.w3.org/2000/svg">
<path d="M159.316 70.6042L153.778 77.3457C152.822 80.5526 156.888 89.8332 150.206 88.543C148.477 88.2069 144.115 85.4729 142.714 85.5933C140.165 85.8131 135.139 90.4016 132.536 87.8584C130.428 85.8007 132.935 80.0714 132.104 77.4204C131.746 76.2795 128.316 73.1597 127.439 71.828C123.352 65.6216 133.804 66.5883 136.265 64.8417C137.205 64.1779 139.263 59.6476 140.332 58.3407C144.452 53.296 147.641 62.1907 149.429 64.9495C152.68 66.0074 157.208 65.771 159.316 68.7456V70.6083V70.6042ZM153.092 70.6083C152.896 70.3552 147.965 69.5629 146.88 68.8825C145.279 67.8785 144.294 64.6011 142.976 63.1573C142.589 63.1656 140.303 67.8453 139.384 68.5755C137.845 69.791 134.465 70.0648 132.548 70.6083C133.592 72.2221 136.282 74.367 136.76 76.1841C137.346 78.4161 136.473 80.7808 136.594 83.0252C138.615 82.573 140.885 80.8596 142.972 80.8555C144.934 80.8555 147.408 82.6311 149.35 83.0252L149.105 76.1053L153.083 70.6083H153.092Z" fill="white" fill-opacity="0.8"/>
<path d="M159.316 24.33C158.247 26.1596 156.118 25.9895 154.347 26.6699C144.523 30.4535 139.076 36.5644 134.889 46.069C134.191 47.6538 133.883 51.1926 131.754 51.3337C127.168 51.6365 130.274 45.0318 131.16 42.97C135.105 33.7765 142.768 25.8402 152.306 22.459C154.63 21.6376 157.873 20.0279 159.316 22.7743V24.33Z" fill="white" fill-opacity="0.8"/>
<path d="M32.6511 110.041C28.0859 112.302 23.7037 115.277 19.1676 117.546C15.4049 119.43 11.8251 120.566 8.69015 116.716C7.57589 115.347 3.22276 107.49 2.76125 105.864C1.70935 102.171 3.2976 99.7941 6.22463 97.7986C10.1287 95.1352 15.197 93.1314 19.2715 90.6339C19.0928 90.2232 15.1305 89.6963 14.2282 89.4557C-8.77641 83.3488 -2.03259 53.5739 21.2132 57.6438C27.0839 58.6726 32.7301 61.9542 37.553 65.2856L40.3886 64.0327L40.1308 57.7184C40.5507 53.6113 40.8875 49.6285 42.4674 45.7661C43.1867 44.003 44.5421 40.6509 46.8912 41.6465C49.8307 42.8911 47.0991 46.4963 46.4422 48.4918C45.1408 52.4372 44.6752 57.2082 45.1117 61.2904C47.07 60.0666 49.3069 59.577 51.631 59.7264C51.9304 57.8802 52.5707 55.7935 53.2733 54.0676C54.1506 51.9103 55.3522 48.3923 58.2667 49.2469C61.1813 50.1015 57.9383 54.9181 57.3146 56.5527C56.8739 57.7143 55.8137 60.6474 55.9925 61.7426L59.7261 67.6835C63.7715 66.916 67.2017 60.1413 68.4531 56.4863C71.5257 47.5086 67.8129 36.888 56.8573 38.394C55.7014 38.5516 54.0841 39.5058 53.3315 39.5556C51.0448 39.6967 49.6021 36.693 52.0426 35.1456C57.219 31.8599 65.7756 34.1043 69.8584 38.3069C75.9703 44.6004 75.0223 53.9349 71.5631 61.2946L85.8698 53.6776C88.2647 53.1881 90.647 53.5324 92.5221 55.1297C93.8401 56.254 99.2576 66.0116 99.4905 67.7416C99.8189 70.2017 98.9292 72.2636 97.1913 73.9812L64.7154 92.3514H122.138C122.25 92.3514 123.975 92.9322 124.237 93.0525C125.771 93.7537 126.499 94.8738 127.127 96.3798L127.276 149.337C126.765 152.515 124.445 154.967 121.381 155.876C94.9502 156.909 68.345 156.037 41.8479 156.32C37.8524 156.539 32.6635 152.938 32.6635 148.715V110.054L32.6511 110.041ZM68.7774 84.2449L69.9083 84.0251C76.8808 79.6399 84.6973 76.1924 91.6781 71.8985C93.0918 71.0315 95.3203 70.1685 94.759 68.115C94.4222 66.8911 91.437 61.78 90.5888 60.4565C89.4246 58.6436 89.0546 57.5898 86.5725 58.4195L62.2166 71.8488L68.7774 84.2449ZM28.2647 72.7615C29.1128 70.4216 30.9256 69.1978 32.9546 67.9656C26.111 62.3898 11.8459 58.0918 6.25373 67.4014C0.915227 76.2878 8.67768 83.9172 17.3299 85.4273C19.3963 85.7882 29.9361 86.6802 30.4267 84.0707C29.6741 81.7806 27.7616 80.0092 27.6078 77.4992C26.2482 76.9516 24.8013 76.599 23.371 76.2878C21.6705 75.9227 16.9848 75.707 16.1865 74.4541C15.4672 73.3257 15.8705 71.5832 17.0971 71.0771C19.3838 70.1312 25.7493 72.1475 28.2647 72.7615ZM34.5553 81.7475L55.5476 70.2972C55.822 69.9736 55.5559 69.7454 55.4436 69.4591C55.2067 68.8493 53.5103 66.078 53.0488 65.6258C51.735 64.3438 50.1342 64.1447 48.4337 64.7711C46.0722 65.6424 36.077 71.2265 34.0522 72.7781C30.4142 75.5659 32.9754 78.636 34.5553 81.7475ZM37.0083 85.8256L44.0432 98.2176L64.9856 86.6055L58.0256 74.367L37.0125 85.8297L37.0083 85.8256ZM32.8091 88.3355C25.4748 92.8327 17.3133 96.4669 10.0289 100.981C8.53632 101.906 6.55309 102.586 7.26821 104.768L12.561 114.086C13.6254 114.845 14.6398 114.733 15.7416 114.132L39.6734 100.732L32.8091 88.3355ZM55.8386 97.0021L37.3077 107.457L37.3202 147.777C37.3867 149.835 39.1246 151.656 41.2118 151.656H66.578V128.212C66.578 126.955 68.8648 126.005 70.1786 126.794C70.3906 126.922 71.2471 128.071 71.2471 128.212V151.656H88.5183L88.9839 151.192V97.4667L88.5183 97.0021H71.2471V118.272C71.2471 119.529 68.9604 120.479 67.6465 119.691C67.4345 119.562 66.578 118.413 66.578 118.272V97.0021H55.8386ZM122.591 97.3091C122.287 97.4086 121.917 96.9979 121.813 96.9979H93.6489V151.652H119.015C119.934 151.652 122.595 149.947 122.595 149.014V97.3091H122.591Z" fill="white" fill-opacity="0.8"/>
<path d="M103.681 11.212C106.051 12.4649 113.09 12.3529 113.552 15.5059C113.959 18.2647 109.411 21.6708 108.026 23.9318C107.486 26.5247 109.531 32.0134 107.918 34.0752C105.382 37.3195 99.9685 32.0217 97.2577 32.1088C95.3743 32.171 91.6157 34.8261 89.3622 35.1414C83.9655 35.9007 87.1337 26.7653 86.4144 23.9442C86.0568 22.542 82.211 19.2894 81.3378 17.5221C78.7808 12.3321 87.9153 12.7428 90.7093 11.3116C92.3724 9.3368 94.3806 3.32539 97.2577 3.23412C100.077 3.14285 102.247 9.18745 103.681 11.2203V11.212ZM107.34 16.8832C105.702 16.5306 102.85 16.2568 101.449 15.4602C99.5985 14.4106 98.7462 11.212 97.2245 9.74337C96.7921 9.75996 94.5718 14.477 93.6405 15.1657C92.2186 16.2153 88.8841 16.5015 87.1129 16.8832C86.7678 17.2151 90.1272 20.7995 90.4765 21.4426C91.7571 23.77 91.0835 27.0433 90.8465 29.6154C95.4824 27.035 98.9707 26.7943 103.602 29.6154C103.769 27.3129 102.896 25.0602 103.428 22.7619C103.931 20.5963 106.816 19.0198 107.34 16.8832Z" fill="white" fill-opacity="0.8"/>
<path d="M126.125 3.32539C131.692 -2.22966 141.558 -0.595088 144.959 6.51571C149.836 16.7048 138.585 27.2714 128.719 21.7869C122.013 18.0614 120.711 8.72694 126.125 3.32539ZM132.465 4.83965C131.081 5.12176 129.181 6.76878 128.445 7.97189C124.524 14.3733 132.32 21.6127 138.444 17.3271C144.573 13.0415 140.614 3.19264 132.465 4.83965Z" fill="white" fill-opacity="0.8"/>
<path d="M115.04 37.7385C116.346 37.4688 117.285 38.1202 117.685 39.3233C118.009 40.2982 118.171 43.1566 118.233 44.3639C118.786 54.8849 117.805 69.9943 112.375 79.196C111.315 80.9924 108.172 86.0496 105.96 82.6975C104.6 80.6398 107.319 78.6028 108.409 76.7857C113.452 68.3597 113.793 54.6028 113.581 44.9655C113.535 42.9077 112.068 38.3483 115.04 37.7343V37.7385Z" fill="white" fill-opacity="0.8"/>
<path d="M169.498 92.0361L177.423 98.0683C177.784 98.9602 176.936 99.6282 176.637 100.528C175.277 104.665 180.283 108.145 183.809 105.291C184.42 104.797 184.665 104.109 185.53 104.241L193.363 110.203C194.02 111.107 194.187 112.02 193.779 113.078C191.991 115.016 190.461 117.994 188.648 119.811C187.929 120.533 186.773 119.708 187.347 118.658C188.478 116.592 190.948 114.46 192.133 112.394C192.332 112.045 192.249 111.742 192.041 111.414L185.302 106.262C180.171 111.282 172.022 105.063 175.531 98.8192L168.941 93.7993L168.014 93.6831L140.452 129.498C139.637 129.855 138.926 129.366 139.159 128.478L148.414 116.322L153.516 102.827C154.015 101.889 155.295 102.267 155.137 103.354L152.223 111.39L164.688 95.0812C163.153 94.6705 161.436 93.6416 159.935 93.2849C159.05 93.0733 158.863 93.5296 158.572 94.2142C157.723 96.2014 157.137 98.3213 156.285 100.313C155.748 101.159 154.468 100.699 154.697 99.6116C154.909 98.6076 156.759 93.6956 157.27 92.8202C157.852 91.8245 158.983 91.2852 160.118 91.5258L165.69 93.5836C165.997 93.5711 166.471 92.6626 166.771 92.3971C167.482 91.7748 168.642 91.7872 169.494 92.032L169.498 92.0361Z" fill="white" fill-opacity="0.8"/>
<path d="M157.399 157.444L133.438 139.21C132.889 138.294 132.711 137.431 133.114 136.406C134.569 134.859 135.846 132.311 137.33 130.888C138.045 130.204 139.109 131.212 138.602 132.029L134.702 137.182L134.852 138.07L158.301 155.834L158.875 155.797L185.376 121.317C186.204 120.666 187.135 121.608 186.686 122.384L178.479 133.158L169.315 157.112C168.658 157.805 167.802 158.091 166.866 157.975L161.208 155.896C160.9 155.909 160.43 156.817 160.127 157.083C159.416 157.705 158.256 157.693 157.403 157.448L157.399 157.444ZM174.67 138.09L162.205 154.399L167.041 156.216L168.001 155.963C170.101 150.13 172.65 144.334 174.629 138.468C174.67 138.343 174.82 138.173 174.67 138.09Z" fill="white" fill-opacity="0.8"/>
<path d="M157.391 122.753C158.796 120.84 160.596 122.11 161.985 123.329C163.004 124.221 163.32 124.993 162.792 126.292L169.053 131.046C169.876 131.88 170.022 133.137 169.39 134.141C167.294 137.46 164.11 140.596 161.919 143.911C160.825 144.811 159.586 144.683 158.451 143.961C156.476 142.708 154.622 140.87 152.663 139.551C151.038 140.783 149.437 139.476 148.173 138.331C147.146 137.402 147.001 136.29 147.882 135.19C144.094 132.95 143.62 127.856 149.021 127.943L150.647 125.856C150.589 124.964 150.206 124.105 150.452 123.155C151.304 119.824 155.586 120.961 157.391 122.753ZM150.913 131.228L148.93 129.723C148.622 129.486 147.059 129.963 146.814 130.349C146.128 131.436 148.098 133.303 148.938 133.809L150.909 131.228H150.913ZM156.335 124.134C155.378 123.367 152.838 121.703 152.156 123.587C152.077 123.807 152.244 125.101 152.381 125.209L154.364 126.715L156.335 124.134ZM151.923 127.042L150.585 128.793L151.965 129.847L153.304 128.096L151.923 127.042ZM153.42 130.805L149.088 136.472C149.088 136.472 149.125 136.867 149.142 136.879L151.075 138.352L151.321 138.319L155.724 132.56L153.42 130.805ZM161.357 125.188C161.449 125.072 159.411 123.342 158.946 123.574L154.472 129.424L156.775 131.179L161.353 125.192L161.357 125.188ZM157.108 133.61L153.761 137.987L153.794 138.231L159.599 142.65C159.732 142.749 160.509 142.886 160.605 142.762L163.74 138.663L157.104 133.614L157.108 133.61ZM161.686 127.623L158.164 132.228L164.8 137.277L168.005 133.087C168.076 132.996 168.001 132.427 167.906 132.357L161.686 127.623Z" fill="white" fill-opacity="0.8"/>
<path d="M166.159 109.788C166.467 109.153 167.049 109.178 167.577 109.51C170.924 111.605 174.096 114.825 177.443 117.023C178.283 117.828 177.427 119.052 176.292 118.343C172.945 116.244 169.772 113.028 166.426 110.83C166.126 110.601 165.993 110.128 166.159 109.788Z" fill="white" fill-opacity="0.8"/>
<path d="M171.07 108.137C171.411 107.585 171.93 107.643 172.413 107.95C174.225 109.091 175.947 110.821 177.747 112.029C178.425 112.734 177.622 113.974 176.516 113.277C174.704 112.136 172.982 110.406 171.182 109.199C170.895 108.921 170.858 108.477 171.066 108.137H171.07Z" fill="white" fill-opacity="0.8"/>
<path d="M164.38 116.306C165.024 115.045 167.523 117.032 167.428 117.799C167.166 119.874 163.802 117.434 164.38 116.306Z" fill="white" fill-opacity="0.8"/>
<path d="M168.604 119.388C169.211 118.496 170.521 119.538 171.053 120.035C171.623 120.571 171.864 121.064 171.19 121.666C170.517 122.267 167.889 120.442 168.604 119.388Z" fill="white" fill-opacity="0.8"/>
<path d="M176.778 126.034C177.435 124.317 179.884 126.478 179.892 127.262C179.905 129.324 176.404 127.013 176.778 126.034Z" fill="white" fill-opacity="0.8"/>
<path d="M156.085 109.996C156.73 108.739 159.195 110.705 159.133 111.489C158.971 113.505 155.466 111.199 156.085 109.996Z" fill="white" fill-opacity="0.8"/>
<path d="M160.235 113.149C160.879 111.892 163.345 113.858 163.282 114.642C163.12 116.658 159.615 114.352 160.235 113.149Z" fill="white" fill-opacity="0.8"/>
<path d="M172.629 122.881C173.198 121.396 174.949 122.769 175.527 123.562C175.905 124.08 175.718 124.728 175.103 124.952C174.454 125.188 172.346 123.616 172.625 122.881H172.629Z" fill="white" fill-opacity="0.8"/>
</svg>
